<?xml version="1.0" ?>

<!-- Uploaded to: SVG Repo, www.svgrepo.com, Generator: SVG Repo Mixer Tools -->
<svg width="800px" height="800px" viewBox="0 0 32 32" id="svg5" version="1.1" xmlns="http://www.w3.org/2000/svg" xmlns:svg="http://www.w3.org/2000/svg">

<defs id="defs2"/>

<g id="layer1" transform="translate(-108,-340)">

<path d="m 126.5,362.01367 a 1,1 0 0 0 -0.70703,0.29297 l -2.29297,2.29297 -1.29297,-1.29297 a 1,1 0 0 0 -1.41406,0 1,1 0 0 0 0,1.41406 l 2,2 a 1.0001,1.0001 0 0 0 1.41406,0 l 3,-3 a 1,1 0 0 0 0,-1.41406 1,1 0 0 0 -0.70703,-0.29297 z" id="path453537" style="color:#000000;fill:#000000;fill-rule:evenodd;stroke-linecap:round;stroke-linejoin:round;stroke-miterlimit:4.1;-inkscape-stroke:none"/>

<path d="m 124,342.01367 c -1.64501,0 -3,1.35499 -3,3 0,1.03818 0.53989,1.96055 1.35156,2.5 l -8.8457,11.5 H 112 c -1.0907,0 -2,0.9093 -2,2 v 7 c 0,1.0907 0.9093,2 2,2 h 24 c 1.0907,0 2,-0.9093 2,-2 v -7 c 0,-1.0907 -0.9093,-2 -2,-2 h -1.50586 l -8.8457,-11.5 c 0.81167,-0.53945 1.35156,-1.46182 1.35156,-2.5 0,-1.64501 -1.35499,-3 -3,-3 z m 0,2 c 0.56413,0 1,0.43587 1,1 0,0.56413 -0.43587,1 -1,1 -0.56413,0 -1,-0.43587 -1,-1 0,-0.56413 0.43587,-1 1,-1 z m 0,4.64063 7.96875,10.35937 h -15.9375 z m -12,12.35937 h 24 v 7 h -24 z" id="path453495" style="color:#000000;fill:#000000;fill-rule:evenodd;stroke-linecap:round;stroke-linejoin:round;stroke-miterlimit:4.1;-inkscape-stroke:none"/>

</g>

</svg>